PathFileType	4	(X/Y/Z)	s04c0102.trc
DataRate	CameraRate	NumFrames	NumMarkers	Units	OrigDataRate	OrigDataStartFrame	OrigNumFrames
200	200	5	50	mm	200	250	2000
Frame#	Time	racr			lacr			c7			jug			rlel			rdr			llel			ldr			s2			lic			ric			lasi			rasi			rpsi			lpsi			rgt			lgt			rth1			rth2			rth3			rth4			rlfc			rmfc			rsh1			rsh2			rsh3			rsh4			rlmal			rmmal			rcal			rtoe			rmt5			lth1			lth2			lth4			lth3			llfc			lmfc			lsh1			lsh2			lsh3			lsh4			llmal			lmmal			lcal			ltoe			lmt5			SBIKE			LBIKE			RBIKE			
		X1	Y1	Z1	X2	Y2	Z2	X3	Y3	Z3	X4	Y4	Z4	X5	Y5	Z5	X6	Y6	Z6	X7	Y7	Z7	X8	Y8	Z8	X9	Y9	Z9	X10	Y10	Z10	X11	Y11	Z11	X12	Y12	Z12	X13	Y13	Z13	X14	Y14	Z14	X15	Y15	Z15	X16	Y16	Z16	X17	Y17	Z17	X18	Y18	Z18	X19	Y19	Z19	X20	Y20	Z20	X21	Y21	Z21	X22	Y22	Z22	X23	Y23	Z23	X24	Y24	Z24	X25	Y25	Z25	X26	Y26	Z26	X27	Y27	Z27	X28	Y28	Z28	X29	Y29	Z29	X30	Y30	Z30	X31	Y31	Z31	X32	Y32	Z32	X33	Y33	Z33	X34	Y34	Z34	X35	Y35	Z35	X36	Y36	Z36	X37	Y37	Z37	X38	Y38	Z38	X39	Y39	Z39	X40	Y40	Z40	X41	Y41	Z41	X42	Y42	Z42	X43	Y43	Z43	X44	Y44	Z44	X45	Y45	Z45	X46	Y46	Z46	X47	Y47	Z47	X48	Y48	Z48	X49	Y49	Z49	X50	Y50	Z50	
250	1.2500	492.299761	1418.777553	-142.504283	501.964213	1385.374185	-439.590241	482.461873	1452.902077	-297.768640	484.726133	1307.248638	-285.754907	494.911036	1117.065738	-30.408579	694.641631	910.312650	-116.840714	467.860322	1105.693983	-536.318906	685.131015	910.984473	-478.388012	-61.517681	1184.932539	-287.203684	97.088665	1185.783015	-438.576134	101.226008	1165.134116	-126.186578	0.000000	0.000000	-0.000000	139.644703	1107.080104	-167.211129	-25.247643	1222.358724	-241.707210	-28.563024	1232.966134	-317.240126	43.140615	1107.591558	-113.335007	54.575901	1125.614925	-485.279479	120.452225	956.995533	-94.739327	175.010748	888.470546	-107.279821	190.905030	804.539180	-114.456450	203.294636	904.048309	-126.429761	233.874959	667.206915	-143.593718	200.882621	649.207104	-252.539737	172.518213	556.759594	-112.631156	155.817233	467.222695	-123.885302	96.734609	403.837224	-125.261760	182.133785	457.286190	-151.542477	41.764015	260.801272	-129.397703	58.949594	265.849992	-216.660735	-33.474789	231.284558	-167.771370	264.154166	189.719957	-163.112419	196.094925	172.184219	-106.953577	118.729754	1073.458146	-488.696289	204.637615	1065.528520	-490.539057	217.146253	1096.178247	-473.887492	277.307815	1014.398176	-500.280945	414.347910	931.680957	-477.740042	448.064696	913.347303	-368.228956	372.236897	825.240203	-496.000810	346.552137	744.750311	-472.017983	282.392989	683.430966	-466.560529	370.905320	735.200092	-442.939869	199.905249	562.923961	-451.043220	200.420901	570.107787	-362.598414	117.092031	548.770491	-405.387623	414.763731	503.577035	-420.719069	338.725563	473.859394	-479.477292	-185.937067	933.961125	-287.225507	-17.463672	79.267285	-485.361479	-17.450920	79.327017	-84.841127	
251	1.2550	492.318181	1418.786522	-142.509216	501.982090	1385.356862	-439.580037	482.461377	1452.908461	-297.756465	484.743780	1307.212945	-285.693008	494.888773	1117.059848	-30.410859	694.635706	910.309741	-116.853242	467.853786	1105.688639	-536.307500	685.121153	910.996047	-478.403812	-61.492474	1184.921998	-287.169540	97.104127	1185.805163	-438.525183	101.241475	1165.105751	-126.180617	0.000000	0.000000	-0.000000	139.665645	1107.056474	-167.207207	-25.224334	1222.337297	-241.684029	-28.124913	1232.934051	-317.491616	43.173064	1107.572460	-113.339275	54.572675	1125.660074	-485.262049	120.447451	956.959486	-94.699970	174.979452	888.433007	-107.284704	190.861177	804.489541	-114.457845	203.259466	904.031580	-126.397359	233.818486	667.155948	-143.603335	200.819034	649.161296	-252.542159	172.509774	556.683192	-112.620738	155.822921	467.170333	-123.875436	96.762099	403.769398	-125.248944	182.142478	457.215605	-151.547004	41.850476	260.696026	-129.408756	59.025492	265.801906	-216.638872	-33.369720	231.164766	-167.792146	264.262417	189.703693	-163.112255	196.218590	172.115493	-106.955954	118.726930	1073.497838	-488.685395	204.646146	1065.550719	-490.540452	217.159631	1096.206226	-473.876189	277.306161	1014.418041	-500.311566	414.344208	931.712517	-477.767763	448.092525	913.386632	-368.250712	372.200441	825.282199	-495.991157	346.495302	744.821063	-472.031098	282.300564	683.539327	-466.610339	370.847348	735.247191	-442.960214	199.786879	563.031475	-451.040869	200.319931	570.205244	-362.590276	116.976442	548.917759	-405.364926	414.641623	503.621354	-420.709100	338.598616	473.922143	-479.481588	-185.940455	933.960820	-287.230167	-17.433430	79.274650	-485.361852	-17.440727	79.320865	-84.824881	
252	1.2600	492.317879	1418.760758	-142.519169	502.003423	1385.342742	-439.595685	482.477505	1452.903569	-297.719716	484.789298	1307.219631	-285.713897	494.876289	1117.037433	-30.398019	694.641792	910.297099	-116.835035	467.837277	1105.671839	-536.294583	685.126230	911.009945	-478.409913	-61.482061	1184.942784	-287.148132	97.089850	1185.809533	-438.498898	101.299198	1165.052948	-126.176487	0.000000	0.000000	-0.000000	139.686566	1107.032970	-167.202951	-25.172084	1222.339581	-241.668036	-28.538645	1232.997943	-317.178358	43.208773	1107.528496	-113.331332	54.578037	1125.679326	-485.255373	120.426700	956.934218	-94.695216	174.939923	888.396367	-107.272089	190.813286	804.448088	-114.449235	203.245313	903.986616	-126.381801	233.741278	667.110571	-143.582028	200.767129	649.108546	-252.505828	172.486526	556.605086	-112.605169	155.841745	467.120622	-123.865846	96.798325	403.698336	-125.236183	182.156179	457.186584	-151.518740	41.955730	260.590821	-129.402554	59.102820	265.675911	-216.649700	-33.269777	231.039243	-167.786561	264.380565	189.678191	-163.114919	196.346819	172.076354	-106.952484	118.732636	1073.528607	-488.666116	204.638228	1065.596842	-490.551293	217.170932	1096.232449	-473.887274	277.309616	1014.448427	-500.326352	414.345478	931.754986	-477.806184	448.077107	913.411523	-368.265637	372.166865	825.342304	-496.006343	346.454388	744.865554	-472.036033	282.225487	683.614025	-466.625107	370.789791	735.291633	-442.992385	199.671352	563.140468	-451.051415	200.247228	570.302260	-362.564490	116.868401	549.067303	-405.359640	414.505637	503.658485	-420.721468	338.467937	473.974542	-479.474586	-185.939134	933.967557	-287.219027	-17.451688	79.299490	-485.367258	-17.458051	79.332998	-84.831156	
253	1.2650	492.347037	1418.791542	-142.489304	502.021221	1385.325208	-439.592316	482.468024	1452.913163	-297.751622	484.822288	1307.208086	-285.691220	494.882069	1117.018411	-30.405736	694.637620	910.295104	-116.852352	467.829961	1105.665267	-536.283718	685.117996	911.015807	-478.409686	-61.480023	1184.933894	-287.108993	97.091642	1185.814689	-438.477950	101.316480	1165.019620	-126.167355	0.000000	0.000000	-0.000000	139.707181	1107.009838	-167.198171	-25.196780	1222.348437	-241.616023	-28.541745	1233.001990	-317.148824	43.213031	1107.509492	-113.328355	54.595682	1125.714313	-485.240256	120.422133	956.913438	-94.692712	174.913950	888.352683	-107.280139	190.772878	804.387929	-114.438197	203.215203	903.942966	-126.373219	233.698387	667.073048	-143.576281	200.686794	649.051861	-252.509265	172.444022	556.549781	-112.615147	155.861177	467.080499	-123.851230	96.825661	403.602550	-125.230822	182.152859	457.099132	-151.517885	42.062266	260.487042	-129.411093	59.234886	265.533944	-216.640279	-33.150448	230.861326	-167.780710	264.476184	189.665235	-163.129145	196.436998	172.022231	-106.960656	118.725665	1073.563766	-488.684628	204.632994	1065.631539	-490.567834	217.167455	1096.259925	-473.914582	277.300387	1014.481729	-500.356224	414.339080	931.776195	-477.822668	448.103669	913.439197	-368.319996	372.148859	825.394986	-496.033858	346.400841	744.919080	-472.069019	282.153341	683.682742	-466.630448	370.741790	735.329904	-442.992206	199.558099	563.255347	-451.050624	200.150905	570.394133	-362.572690	116.743410	549.190481	-405.358948	414.379770	503.711190	-420.719039	338.333420	474.048879	-479.474872	-185.925432	933.963364	-287.203558	-17.453672	79.285714	-485.367020	-17.443385	79.338725	-84.844249	
254	1.2700	492.338811	1418.794329	-142.481481	502.076881	1385.307664	-439.599126	482.473697	1452.915344	-297.724765	484.840145	1307.207502	-285.689187	494.895526	1117.010991	-30.403772	694.647636	910.281131	-116.852044	467.814486	1105.651422	-536.268886	685.112592	911.021211	-478.402484	-61.465480	1184.931583	-287.080231	97.105897	1185.832276	-438.449102	101.343521	1164.991925	-126.166193	0.000000	0.000000	-0.000000	139.727208	1106.987083	-167.192676	-25.143699	1222.332660	-241.599514	-28.547568	1233.010694	-317.108432	43.221550	1107.494476	-113.319013	54.592561	1125.736733	-485.234013	120.394205	956.876448	-94.669419	174.884569	888.292642	-107.250679	190.754345	804.334543	-114.399112	203.201290	903.882277	-126.365395	233.626041	667.005007	-143.565866	200.646208	649.014073	-252.491048	172.418294	556.494136	-112.599630	155.887409	467.031428	-123.848743	96.855160	403.493513	-125.228330	182.182158	457.062856	-151.503098	42.129498	260.369756	-129.413930	59.289320	265.461447	-216.639254	-33.041289	230.726853	-167.758165	264.589498	189.646175	-163.128071	196.551614	171.976586	-106.956496	118.734683	1073.576133	-488.681757	204.632589	1065.670748	-490.584729	217.172164	1096.303806	-473.919566	277.315645	1014.503832	-500.374394	414.349956	931.813540	-477.874892	448.110544	913.463183	-368.357547	372.122201	825.433836	-496.059565	346.348741	744.966352	-472.080685	282.085375	683.756889	-466.645295	370.690290	735.375402	-443.004202	199.456227	563.342348	-451.043942	200.032911	570.510920	-362.575326	116.651407	549.301970	-405.337211	414.253045	503.744814	-420.719573	338.202245	474.109397	-479.472358	-185.925265	933.961208	-287.214466	-17.448437	79.273015	-485.367924	-17.447961	79.323417	-84.822275	
